<svg width="44" height="39" viewBox="0 0 44 39" fill="none" xmlns="http://www.w3.org/2000/svg">
<path d="M44 19.3657C44 17.6765 42.9108 16.2377 41.3982 15.7123C41.1658 10.4715 39.2092 6.44966 35.573 3.74701C32.2543 1.28043 27.6878 0.0297852 22 0.0297852C16.3122 0.0297852 11.7457 1.28043 8.42703 3.7471C4.79084 6.44966 2.83422 10.4715 2.60176 15.7123C1.08917 16.2377 0 17.6765 0 19.3657C0 20.3555 0.374172 21.2591 0.987852 21.9438C0.374172 22.6286 0 23.5322 0 24.522C0 26.2216 1.10258 27.6675 2.6296 28.1849C3.18252 34.0752 8.18967 38.7017 14.2656 38.7017H29.7344C35.8103 38.7017 40.8175 34.0752 41.3704 28.1849C42.8974 27.6675 44 26.2216 44 24.522C44 23.5322 43.6258 22.6286 43.0121 21.9438C43.6258 21.2591 44 20.3555 44 19.3657ZM22 2.60791C29.3933 2.60791 38.1513 4.88697 38.8034 15.4985H5.19655C5.84873 4.88697 14.6067 2.60791 22 2.60791ZM3.86719 18.0767H40.1328C40.8436 18.0767 41.4219 18.6549 41.4219 19.3657C41.4219 20.0765 40.8436 20.6548 40.1328 20.6548H3.86719C3.1564 20.6548 2.57812 20.0765 2.57812 19.3657C2.57812 18.6549 3.1564 18.0767 3.86719 18.0767ZM29.7344 36.1235H14.2656C9.68456 36.1235 5.88302 32.7562 5.24958 28.3892H6.44531C7.30709 28.3892 7.57943 28.6823 8.12187 29.2664C8.78857 29.9842 9.70166 30.9673 11.6875 30.9673C13.6874 30.9673 14.5766 29.9742 15.226 29.2491C15.7387 28.6765 15.996 28.3892 16.8438 28.3892C17.6915 28.3892 17.9488 28.6765 18.4615 29.2491C19.1109 29.9742 20.0001 30.9673 22 30.9673C23.9999 30.9673 24.8891 29.9742 25.5385 29.2491C26.0512 28.6765 26.3085 28.3892 27.1562 28.3892C28.004 28.3892 28.2613 28.6765 28.774 29.2491C29.4234 29.9742 30.3126 30.9673 32.3125 30.9673C34.3124 30.9673 35.2016 29.9742 35.851 29.2491C36.3637 28.6765 36.621 28.3892 37.4688 28.3892H38.7504C38.117 32.7562 34.3154 36.1235 29.7344 36.1235ZM40.1328 25.811H37.4688C35.4689 25.811 34.5796 26.8041 33.9303 27.5293C33.4176 28.1018 33.1603 28.3892 32.3125 28.3892C31.4647 28.3892 31.2074 28.1018 30.6947 27.5293C30.0454 26.8041 29.1561 25.811 27.1562 25.811C25.1564 25.811 24.2671 26.8041 23.6178 27.5293C23.1051 28.1018 22.8478 28.3892 22 28.3892C21.1522 28.3892 20.8949 28.1018 20.3822 27.5293C19.7329 26.8041 18.8436 25.811 16.8438 25.811C14.8439 25.811 13.9546 26.8041 13.3053 27.5293C12.7926 28.1018 12.5353 28.3892 11.6875 28.3892C10.8257 28.3892 10.5534 28.096 10.0109 27.5119C9.34424 26.7941 8.43116 25.811 6.44531 25.811H3.86719C3.1564 25.811 2.57812 25.2328 2.57812 24.522C2.57812 23.8112 3.1564 23.2329 3.86719 23.2329H40.1328C40.8436 23.2329 41.4219 23.8112 41.4219 24.522C41.4219 25.2328 40.8436 25.811 40.1328 25.811Z" fill="black"/>
<path d="M14.2656 12.9204C14.9776 12.9204 15.5547 12.3433 15.5547 11.6313C15.5547 10.9194 14.9776 10.3423 14.2656 10.3423C13.5537 10.3423 12.9766 10.9194 12.9766 11.6313C12.9766 12.3433 13.5537 12.9204 14.2656 12.9204Z" fill="black"/>
<path d="M29.7344 12.9204C30.4463 12.9204 31.0234 12.3433 31.0234 11.6313C31.0234 10.9194 30.4463 10.3423 29.7344 10.3423C29.0224 10.3423 28.4453 10.9194 28.4453 11.6313C28.4453 12.3433 29.0224 12.9204 29.7344 12.9204Z" fill="black"/>
<path d="M24.5781 10.3423C25.2901 10.3423 25.8672 9.76515 25.8672 9.05322C25.8672 8.34129 25.2901 7.76416 24.5781 7.76416C23.8662 7.76416 23.2891 8.34129 23.2891 9.05322C23.2891 9.76515 23.8662 10.3423 24.5781 10.3423Z" fill="black"/>
<path d="M19.4219 7.76416C20.1338 7.76416 20.7109 7.18703 20.7109 6.4751C20.7109 5.76317 20.1338 5.18604 19.4219 5.18604C18.7099 5.18604 18.1328 5.76317 18.1328 6.4751C18.1328 7.18703 18.7099 7.76416 19.4219 7.76416Z" fill="black"/>
</svg>
